<?xml version="1.0" encoding="utf-8"?>
<svg xmlns="http://www.w3.org/2000/svg" xmlns:xlink="http://www.w3.org/1999/xlink" style="margin: auto; background: none; display: block; shape-rendering: auto;" width="122px" height="122px" viewBox="0 0 100 100" preserveAspectRatio="xMidYMid">
<g transform="rotate(0 50 50)">
  <rect x="46.5" y="22" rx="3.5" ry="7" width="7" height="14" fill="#ffde00">
    <animate attributeName="opacity" values="1;0" keyTimes="0;1" dur="0.8771929824561403s" begin="-0.8145363408521303s" repeatCount="indefinite"></animate>
  </rect>
</g><g transform="rotate(25.714285714285715 50 50)">
  <rect x="46.5" y="22" rx="3.5" ry="7" width="7" height="14" fill="#ffde00">
    <animate attributeName="opacity" values="1;0" keyTimes="0;1" dur="0.8771929824561403s" begin="-0.7518796992481203s" repeatCount="indefinite"></animate>
  </rect>
</g><g transform="rotate(51.42857142857143 50 50)">
  <rect x="46.5" y="22" rx="3.5" ry="7" width="7" height="14" fill="#ffde00">
    <animate attributeName="opacity" values="1;0" keyTimes="0;1" dur="0.8771929824561403s" begin="-0.6892230576441103s" repeatCount="indefinite"></animate>
  </rect>
</g><g transform="rotate(77.14285714285714 50 50)">
  <rect x="46.5" y="22" rx="3.5" ry="7" width="7" height="14" fill="#ffde00">
    <animate attributeName="opacity" values="1;0" keyTimes="0;1" dur="0.8771929824561403s" begin="-0.6265664160401002s" repeatCount="indefinite"></animate>
  </rect>
</g><g transform="rotate(102.85714285714286 50 50)">
  <rect x="46.5" y="22" rx="3.5" ry="7" width="7" height="14" fill="#ffde00">
    <animate attributeName="opacity" values="1;0" keyTimes="0;1" dur="0.8771929824561403s" begin="-0.5639097744360902s" repeatCount="indefinite"></animate>
  </rect>
</g><g transform="rotate(128.57142857142858 50 50)">
  <rect x="46.5" y="22" rx="3.5" ry="7" width="7" height="14" fill="#ffde00">
    <animate attributeName="opacity" values="1;0" keyTimes="0;1" dur="0.8771929824561403s" begin="-0.5012531328320802s" repeatCount="indefinite"></animate>
  </rect>
</g><g transform="rotate(154.28571428571428 50 50)">
  <rect x="46.5" y="22" rx="3.5" ry="7" width="7" height="14" fill="#ffde00">
    <animate attributeName="opacity" values="1;0" keyTimes="0;1" dur="0.8771929824561403s" begin="-0.43859649122807015s" repeatCount="indefinite"></animate>
  </rect>
</g><g transform="rotate(180 50 50)">
  <rect x="46.5" y="22" rx="3.5" ry="7" width="7" height="14" fill="#ffde00">
    <animate attributeName="opacity" values="1;0" keyTimes="0;1" dur="0.8771929824561403s" begin="-0.37593984962406013s" repeatCount="indefinite"></animate>
  </rect>
</g><g transform="rotate(205.71428571428572 50 50)">
  <rect x="46.5" y="22" rx="3.5" ry="7" width="7" height="14" fill="#ffde00">
    <animate attributeName="opacity" values="1;0" keyTimes="0;1" dur="0.8771929824561403s" begin="-0.3132832080200501s" repeatCount="indefinite"></animate>
  </rect>
</g><g transform="rotate(231.42857142857142 50 50)">
  <rect x="46.5" y="22" rx="3.5" ry="7" width="7" height="14" fill="#ffde00">
    <animate attributeName="opacity" values="1;0" keyTimes="0;1" dur="0.8771929824561403s" begin="-0.2506265664160401s" repeatCount="indefinite"></animate>
  </rect>
</g><g transform="rotate(257.14285714285717 50 50)">
  <rect x="46.5" y="22" rx="3.5" ry="7" width="7" height="14" fill="#ffde00">
    <animate attributeName="opacity" values="1;0" keyTimes="0;1" dur="0.8771929824561403s" begin="-0.18796992481203006s" repeatCount="indefinite"></animate>
  </rect>
</g><g transform="rotate(282.85714285714283 50 50)">
  <rect x="46.5" y="22" rx="3.5" ry="7" width="7" height="14" fill="#ffde00">
    <animate attributeName="opacity" values="1;0" keyTimes="0;1" dur="0.8771929824561403s" begin="-0.12531328320802004s" repeatCount="indefinite"></animate>
  </rect>
</g><g transform="rotate(308.57142857142856 50 50)">
  <rect x="46.5" y="22" rx="3.5" ry="7" width="7" height="14" fill="#ffde00">
    <animate attributeName="opacity" values="1;0" keyTimes="0;1" dur="0.8771929824561403s" begin="-0.06265664160401002s" repeatCount="indefinite"></animate>
  </rect>
</g><g transform="rotate(334.2857142857143 50 50)">
  <rect x="46.5" y="22" rx="3.5" ry="7" width="7" height="14" fill="#ffde00">
    <animate attributeName="opacity" values="1;0" keyTimes="0;1" dur="0.8771929824561403s" begin="0s" repeatCount="indefinite"></animate>
  </rect>
</g>
<!-- [ldio] generated by https://loading.io/ --></svg>